<svg xmlns="http://www.w3.org/2000/svg" data-name="Layer 1" viewBox="0 0 512 512" x="0px" y="0px"><title>m1</title><path d="M0,392V120a27.7,27.7,0,0,0,1-3.26C6.28,86.62,32.5,64.09,63.12,64.06q192.88-.17,385.75,0c29.15,0,54.4,20.48,61.26,48.81,0.58,2.39,1.28,4.76,1.87,7.14V392a12.33,12.33,0,0,0-.87,2.25c-4.75,26.56-23.22,47-49.45,51.92-12.28,2.32-25.18,1.74-37.79,1.75q-179.62.17-359.26,0c-29.44,0-54.17-18.62-62.17-46.41C1.55,398.43.82,395.21,0,392ZM174.21,251.33c-8,7.9-15.56,15.36-23,22.91L69.73,355.49c-4.92,4.89-7.19,10.43-5.12,17.16,3.7,12.22,18,15.16,27.61,5.63Q143,327.69,193.66,276.84a37,37,0,0,0,3.38-4.68c2.8,2.56,4.65,4.16,6.48,5.81l40.72,37c7.74,7,15.82,6.92,23.6-.1q21.13-19.12,42.24-38.3c1.28-1.2,2.7-2.38,4.29-3.84C327.1,285.49,339.55,298,352,310.48l67.84,67.84c4.6,4.61,9.87,6.78,16.29,5.06,12.43-3.37,16-17.84,6.58-27.33q-34-34.24-68.21-68.25c-12.12-12.11-24.32-24.19-36.65-36.53,1.61-1.52,2.92-2.78,4.26-4l49.54-45,50.68-46.08c4.88-4.43,6.82-9.88,5.21-16.22a15.17,15.17,0,0,0-11.4-11.52c-6.4-1.7-11.58.64-16.36,5Q340,206.12,260,278.69c-1.28,1.19-2.66,2.33-4.08,3.57L179.7,213q-44-39.88-88.05-79.88c-4.63-4.22-9.8-6.25-16-4.51a15.22,15.22,0,0,0-11.3,11.52c-1.54,6.4.5,11.78,5.38,16.19q31.48,28.54,62.9,57.15Z"/></svg>
